<svg width="209" height="226" viewBox="0 0 209 226" fill="none" xmlns="http://www.w3.org/2000/svg">
<path d="M51.4697 1.97163L51.4697 1.97165L51.4742 1.96414C52.2232 0.715796 54.0114 0.633165 54.929 1.9895L101.049 77.3532L101.054 77.3612C101.969 78.8255 100.908 80.7278 99.3248 80.7278H53.1939H7.06291C5.48534 80.7278 4.40521 78.9509 5.34361 77.3452L51.4697 1.97163Z" stroke="url(#paint0_linear_6_2)" stroke-width="2"/>
<path d="M26.5 225C12.4371 225 1 213.563 1 199.5C1 185.437 12.4371 174 26.5 174C40.5629 174 52 185.437 52 199.5C52 213.641 40.5648 225 26.5 225Z" stroke="url(#paint1_linear_6_2)" stroke-width="2"/>
<path d="M207.294 122.751L207.274 122.769L207.256 122.787L187.625 142.44C185.991 144.077 185.991 146.923 187.625 148.56L207.256 168.213C208.11 169.068 208.11 170.65 207.256 171.505L189.422 189.359C188.568 190.214 186.99 190.214 186.137 189.359L166.506 169.706C164.871 168.069 162.025 168.069 160.39 169.706L140.76 189.359C139.906 190.214 138.328 190.214 137.474 189.359L119.641 171.505C118.786 170.65 118.786 169.068 119.641 168.213L139.271 148.56C140.906 146.923 140.906 144.077 139.271 142.44L119.641 122.787C118.786 121.932 118.786 120.35 119.641 119.495L137.474 101.641C138.328 100.786 139.906 100.786 140.76 101.641L160.39 121.294C162.025 122.931 164.871 122.931 166.506 121.294L186.137 101.641C186.99 100.786 188.568 100.786 189.422 101.641L207.256 119.495C208.27 120.51 208.214 121.922 207.294 122.751Z" stroke="url(#paint2_linear_6_2)" stroke-width="2"/>
<defs>
<linearGradient id="paint0_linear_6_2" x1="4" y1="40.8639" x2="102.388" y2="40.8639" gradientUnits="userSpaceOnUse">
<stop stop-color="#F7941D"/>
<stop offset="1" stop-color="#27AAE1"/>
</linearGradient>
<linearGradient id="paint1_linear_6_2" x1="0" y1="199.5" x2="53" y2="199.5" gradientUnits="userSpaceOnUse">
<stop stop-color="#F7941D"/>
<stop offset="1" stop-color="#27AAE1"/>
</linearGradient>
<linearGradient id="paint2_linear_6_2" x1="118" y1="145.5" x2="209" y2="145.5" gradientUnits="userSpaceOnUse">
<stop stop-color="#F7941D"/>
<stop offset="1" stop-color="#27AAE1"/>
</linearGradient>
</defs>
</svg>
